<svg xmlns="http://www.w3.org/2000/svg" xmlns:xlink="http://www.w3.org/1999/xlink" xmlns:sketch="http://www.bohemiancoding.com/sketch/ns" viewBox="0 0 34 47.5" version="1.1" x="0px" y="0px"><title>Add Calendar</title><description>Created with Sketch.</description><g stroke="none" stroke-width="1" fill="none" fill-rule="evenodd" sketch:type="MSPage"><path d="M26,2 L9,2 L9,2 L9,1.2 C9,0.38565142 8.55230914,0 8,0 C7.44957587,0 7.00094251,0.386451527 7,1.2 L7,2 L2,2 C0.891301566,2.09790816 0,3.03896946 0,4.05714286 L0,35.9428571 C0,37.0589387 0.891301566,38 2,38 L32,38 C33.1086984,38 34,37.0589387 34,35.9428571 L34,4.05714286 C33.9992748,3.03896946 33.1086984,2.09790816 32,2 L28,2 L28,1.2 C28,0.386451527 27.5520981,0 27,0 C26.4488449,0 26,0.386451527 26,1.2 L26,2 Z M28,4 L31.0625,4 C31.663424,4 32,4.43496335 32,5.14285714 L32,12 L2,12 L2,5.14285714 C2,4.43496335 2.33657596,4 2.9375,4 L7,4 L7,4 L7,4.8 C7,5.61354847 7.44863336,6 8,6 C8.55136664,6 9,5.61354847 9,4.8 L9,4 L26,4 L26,4.8 C26,5.61354847 26.4488449,6 27,6 C27.5511551,6 28,5.61354847 28,4.8 L28,4 Z M16,24 L16,19 L18,19 L18,24 L23,24 L23,26 L18,26 L18,31 L16,31 L16,26 L11,26 L11,24 L16,24 L16,24 Z M32,35.0833333 C31.9993117,35.6731143 31.6627357,36 31.0625,36 L2.9375,36 C2.33657596,36 2,35.6731143 2,35.0833333 L2,14 L32,14 L32,35.0833333 Z" fill="#000000" sketch:type="MSShapeGroup"/></g><text x="0" y="53" fill="#000000" font-size="5px" font-weight="bold" font-family="'Helvetica Neue', Helvetica, Arial-Unicode, Arial, Sans-serif">Created by Rıza Selçuk Saydam</text><text x="0" y="58" fill="#000000" font-size="5px" font-weight="bold" font-family="'Helvetica Neue', Helvetica, Arial-Unicode, Arial, Sans-serif">from the Noun Project</text></svg>