<svg xmlns="http://www.w3.org/2000/svg" viewBox="0 0 32 40" x="0px" y="0px"><title>Delete</title><g data-name="Layer 6"><path d="M26,5H21V3a1,1,0,0,0-1-1H12a1,1,0,0,0-1,1V5H6A1,1,0,0,0,5,6V9a1,1,0,0,0,1,1h0L7,29.05A1,1,0,0,0,8,30H24a1,1,0,0,0,1-.95L26,10H26a1,1,0,0,0,1-1V6A1,1,0,0,0,26,5ZM13,4h6V5H13ZM7,7H25V8H7ZM23.05,28H9l-.9-18H24ZM12,26a1,1,0,0,1-1-1V13a1,1,0,0,1,2,0V25A1,1,0,0,1,12,26Zm8,0a1,1,0,0,1-1-1V13a1,1,0,0,1,2,0V25A1,1,0,0,1,20,26Zm-4,0a1,1,0,0,1-1-1V13a1,1,0,0,1,2,0V25A1,1,0,0,1,16,26Z"/></g><text x="0" y="47" fill="#000000" font-size="5px" font-weight="bold" font-family="'Helvetica Neue', Helvetica, Arial-Unicode, Arial, Sans-serif">Created by Debi Alpa Nugraha</text><text x="0" y="52" fill="#000000" font-size="5px" font-weight="bold" font-family="'Helvetica Neue', Helvetica, Arial-Unicode, Arial, Sans-serif">from the Noun Project</text></svg>